<svg xmlns="http://www.w3.org/2000/svg" xmlns:xlink="http://www.w3.org/1999/xlink" zoomAndPan="magnify" preserveAspectRatio="xMidYMid meet" version="1.0" viewBox="68.26 99.18 240.44 161.59"><defs><g/><clipPath id="a53c9808a1"><path d="M 141 167 L 224 167 L 224 222.695312 L 141 222.695312 Z M 141 167 " clip-rule="nonzero"/></clipPath><clipPath id="0e6d617501"><path d="M 228 175 L 245.558594 175 L 245.558594 213 L 228 213 Z M 228 175 " clip-rule="nonzero"/></clipPath><clipPath id="826a4ca5af"><path d="M 141 167 L 224 167 L 224 222.695312 L 141 222.695312 Z M 141 167 " clip-rule="nonzero"/></clipPath><clipPath id="6ae025b07a"><path d="M 228 175 L 245.558594 175 L 245.558594 213 L 228 213 Z M 228 175 " clip-rule="nonzero"/></clipPath></defs><path fill="#fcc509" d="M 168.917969 161.726562 C 174.164062 159.671875 178.523438 155.785156 181.714844 151.203125 C 187.210938 158.160156 195.480469 162.914062 204.371094 163.679688 C 214.644531 164.746094 225.265625 160.511719 231.949219 152.6875 C 237.25 146.699219 240.121094 138.675781 239.871094 130.679688 C 239.722656 122.359375 236.109375 114.164062 230.117188 108.421875 C 223.210938 101.5625 213.132812 98.195312 203.503906 99.433594 C 192.957031 100.597656 183.449219 107.429688 178.570312 116.816406 C 172.703125 110.796875 164.1875 107.457031 155.769531 108.296875 C 147.105469 109.015625 138.933594 114.089844 134.453125 121.542969 C 130.417969 128.03125 129.328125 136.199219 131.382812 143.554688 C 133.3125 150.460938 138.042969 156.527344 144.28125 160.089844 C 151.636719 164.398438 161.042969 165.019531 168.917969 161.726562 Z M 205.1875 120.777344 C 211.375 119.265625 218.085938 124.21875 218.433594 130.582031 C 219.148438 136.621094 213.925781 142.414062 207.859375 142.488281 C 202.363281 142.785156 197.140625 138.355469 196.546875 132.882812 C 195.730469 127.386719 199.789062 121.867188 205.1875 120.777344 Z M 156.042969 126.816406 C 161.316406 125.332031 167.207031 129.441406 167.703125 134.886719 C 168.445312 139.964844 164.386719 144.964844 159.308594 145.410156 C 154.308594 146.078125 149.332031 142.09375 148.835938 137.089844 C 148.21875 132.511719 151.511719 127.78125 156.042969 126.816406 Z M 156.042969 126.816406 " fill-opacity="1" fill-rule="nonzero"/><g clip-path="url(#a53c9808a1)"><path fill="#fcc509" d="M 182.285156 183.957031 C 180.527344 178.609375 179.289062 173.089844 177.332031 167.816406 C 165.226562 167.71875 153.121094 167.71875 141.015625 167.839844 C 141.089844 186.210938 141.039062 204.582031 141.039062 222.976562 C 148.316406 222.902344 155.597656 222.953125 162.875 222.953125 C 162.875 213.890625 162.898438 204.828125 162.898438 195.792969 C 166.636719 204.855469 170.203125 213.964844 173.992188 223 C 179.5625 222.925781 185.109375 222.976562 190.679688 222.976562 C 194.367188 213.988281 197.90625 204.929688 201.671875 195.992188 C 201.746094 204.976562 201.71875 213.988281 201.71875 222.976562 C 209 222.976562 216.277344 222.953125 223.558594 222.976562 C 223.558594 204.582031 223.558594 186.1875 223.558594 167.792969 C 211.402344 167.765625 199.246094 167.792969 187.089844 167.765625 C 185.480469 173.164062 183.871094 178.535156 182.285156 183.957031 Z M 182.285156 183.957031 " fill-opacity="1" fill-rule="nonzero"/></g><g clip-path="url(#0e6d617501)"><path fill="#fcc509" d="M 228.535156 184.578125 C 228.285156 191.113281 228.484375 197.648438 228.433594 204.160156 C 234.179688 207.058594 239.898438 209.980469 245.640625 212.851562 C 245.664062 200.546875 245.617188 188.242188 245.664062 175.9375 C 239.945312 178.832031 234.277344 181.78125 228.535156 184.578125 Z M 228.535156 184.578125 " fill-opacity="1" fill-rule="nonzero"/></g><g clip-path="url(#826a4ca5af)"><path fill="#ffffff" d="M 182.285156 183.957031 C 180.527344 178.609375 179.289062 173.089844 177.332031 167.816406 C 165.226562 167.71875 153.121094 167.71875 141.015625 167.839844 C 141.089844 186.210938 141.039062 204.582031 141.039062 222.976562 C 148.316406 222.902344 155.597656 222.953125 162.875 222.953125 C 162.875 213.890625 162.898438 204.828125 162.898438 195.792969 C 166.636719 204.855469 170.203125 213.964844 173.992188 223 C 179.5625 222.925781 185.109375 222.976562 190.679688 222.976562 C 194.367188 213.988281 197.90625 204.929688 201.671875 195.992188 C 201.746094 204.976562 201.71875 213.988281 201.71875 222.976562 C 209 222.976562 216.277344 222.953125 223.558594 222.976562 C 223.558594 204.582031 223.558594 186.1875 223.558594 167.792969 C 211.402344 167.765625 199.246094 167.792969 187.089844 167.765625 C 185.480469 173.164062 183.871094 178.535156 182.285156 183.957031 Z M 182.285156 183.957031 " fill-opacity="1" fill-rule="nonzero"/></g><g clip-path="url(#6ae025b07a)"><path fill="#ffffff" d="M 228.535156 184.578125 C 228.285156 191.113281 228.484375 197.648438 228.433594 204.160156 C 234.179688 207.058594 239.898438 209.980469 245.640625 212.851562 C 245.664062 200.546875 245.617188 188.242188 245.664062 175.9375 C 239.945312 178.832031 234.277344 181.78125 228.535156 184.578125 Z M 228.535156 184.578125 " fill-opacity="1" fill-rule="nonzero"/></g><g fill="#fcc509" fill-opacity="1"><g transform="translate(65.069942, 248.530368)"><g><path d="M 27.609375 0 L 27.5625 -16.109375 L 19.671875 -2.84375 L 16.875 -2.84375 L 9.015625 -15.765625 L 9.015625 0 L 3.1875 0 L 3.1875 -26.84375 L 8.328125 -26.84375 L 18.359375 -10.15625 L 28.265625 -26.84375 L 33.359375 -26.84375 L 33.4375 0 Z M 27.609375 0 "/></g></g></g><g fill="#fcc509" fill-opacity="1"><g transform="translate(99.195323, 248.530368)"><g><path d="M 12.578125 0.3125 C 10.398438 0.3125 8.445312 -0.140625 6.71875 -1.046875 C 5 -1.960938 3.65625 -3.222656 2.6875 -4.828125 C 1.71875 -6.441406 1.234375 -8.269531 1.234375 -10.3125 C 1.234375 -12.351562 1.71875 -14.179688 2.6875 -15.796875 C 3.65625 -17.410156 5 -18.671875 6.71875 -19.578125 C 8.445312 -20.484375 10.398438 -20.9375 12.578125 -20.9375 C 14.742188 -20.9375 16.679688 -20.484375 18.390625 -19.578125 C 20.109375 -18.671875 21.453125 -17.410156 22.421875 -15.796875 C 23.398438 -14.179688 23.890625 -12.351562 23.890625 -10.3125 C 23.890625 -8.269531 23.398438 -6.441406 22.421875 -4.828125 C 21.453125 -3.222656 20.109375 -1.960938 18.390625 -1.046875 C 16.679688 -0.140625 14.742188 0.3125 12.578125 0.3125 Z M 12.578125 -4.59375 C 14.109375 -4.59375 15.363281 -5.109375 16.34375 -6.140625 C 17.332031 -7.179688 17.828125 -8.570312 17.828125 -10.3125 C 17.828125 -12.050781 17.332031 -13.4375 16.34375 -14.46875 C 15.363281 -15.507812 14.109375 -16.03125 12.578125 -16.03125 C 11.046875 -16.03125 9.78125 -15.507812 8.78125 -14.46875 C 7.78125 -13.4375 7.28125 -12.050781 7.28125 -10.3125 C 7.28125 -8.570312 7.78125 -7.179688 8.78125 -6.140625 C 9.78125 -5.109375 11.046875 -4.59375 12.578125 -4.59375 Z M 12.578125 -4.59375 "/></g></g></g><g fill="#fcc509" fill-opacity="1"><g transform="translate(121.817573, 248.530368)"><g><path d="M 23.234375 -20.625 L 14.53125 0 L 8.359375 0 L -0.3125 -20.625 L 5.859375 -20.625 L 11.578125 -6.59375 L 17.484375 -20.625 Z M 23.234375 -20.625 "/></g></g></g><g fill="#fcc509" fill-opacity="1"><g transform="translate(142.25423, 248.530368)"><g><path d="M 2.765625 -20.625 L 8.75 -20.625 L 8.75 0 L 2.765625 0 Z M 5.75 -23.5 C 4.644531 -23.5 3.75 -23.816406 3.0625 -24.453125 C 2.375 -25.097656 2.03125 -25.894531 2.03125 -26.84375 C 2.03125 -27.789062 2.375 -28.582031 3.0625 -29.21875 C 3.75 -29.851562 4.644531 -30.171875 5.75 -30.171875 C 6.84375 -30.171875 7.734375 -29.863281 8.421875 -29.25 C 9.117188 -28.644531 9.46875 -27.878906 9.46875 -26.953125 C 9.46875 -25.953125 9.117188 -25.125 8.421875 -24.46875 C 7.734375 -23.820312 6.84375 -23.5 5.75 -23.5 Z M 5.75 -23.5 "/></g></g></g><g fill="#fcc509" fill-opacity="1"><g transform="translate(151.302781, 248.530368)"><g><path d="M 22.96875 -10.234375 C 22.96875 -10.160156 22.929688 -9.625 22.859375 -8.625 L 7.25 -8.625 C 7.53125 -7.34375 8.191406 -6.332031 9.234375 -5.59375 C 10.285156 -4.851562 11.59375 -4.484375 13.15625 -4.484375 C 14.226562 -4.484375 15.175781 -4.640625 16 -4.953125 C 16.832031 -5.273438 17.609375 -5.785156 18.328125 -6.484375 L 21.515625 -3.03125 C 19.566406 -0.800781 16.726562 0.3125 13 0.3125 C 10.675781 0.3125 8.617188 -0.140625 6.828125 -1.046875 C 5.035156 -1.960938 3.65625 -3.222656 2.6875 -4.828125 C 1.71875 -6.441406 1.234375 -8.269531 1.234375 -10.3125 C 1.234375 -12.332031 1.710938 -14.15625 2.671875 -15.78125 C 3.628906 -17.40625 4.941406 -18.671875 6.609375 -19.578125 C 8.285156 -20.484375 10.160156 -20.9375 12.234375 -20.9375 C 14.253906 -20.9375 16.082031 -20.5 17.71875 -19.625 C 19.351562 -18.757812 20.632812 -17.515625 21.5625 -15.890625 C 22.5 -14.265625 22.96875 -12.378906 22.96875 -10.234375 Z M 12.265625 -16.40625 C 10.910156 -16.40625 9.773438 -16.019531 8.859375 -15.25 C 7.941406 -14.488281 7.378906 -13.441406 7.171875 -12.109375 L 17.328125 -12.109375 C 17.128906 -13.421875 16.566406 -14.460938 15.640625 -15.234375 C 14.722656 -16.015625 13.597656 -16.40625 12.265625 -16.40625 Z M 12.265625 -16.40625 "/></g></g></g><g fill="#fcc509" fill-opacity="1"><g transform="translate(173.004772, 248.530368)"><g><path d="M 16.03125 0.453125 C 13.289062 0.453125 10.816406 -0.140625 8.609375 -1.328125 C 6.398438 -2.515625 4.660156 -4.160156 3.390625 -6.265625 C 2.128906 -8.378906 1.5 -10.765625 1.5 -13.421875 C 1.5 -16.078125 2.128906 -18.457031 3.390625 -20.5625 C 4.660156 -22.675781 6.398438 -24.328125 8.609375 -25.515625 C 10.816406 -26.703125 13.300781 -27.296875 16.0625 -27.296875 C 18.394531 -27.296875 20.5 -26.882812 22.375 -26.0625 C 24.25 -25.25 25.828125 -24.078125 27.109375 -22.546875 L 23.125 -18.859375 C 21.3125 -20.960938 19.0625 -22.015625 16.375 -22.015625 C 14.707031 -22.015625 13.222656 -21.648438 11.921875 -20.921875 C 10.617188 -20.191406 9.601562 -19.171875 8.875 -17.859375 C 8.144531 -16.554688 7.78125 -15.078125 7.78125 -13.421875 C 7.78125 -11.753906 8.144531 -10.269531 8.875 -8.96875 C 9.601562 -7.664062 10.617188 -6.648438 11.921875 -5.921875 C 13.222656 -5.191406 14.707031 -4.828125 16.375 -4.828125 C 19.0625 -4.828125 21.3125 -5.890625 23.125 -8.015625 L 27.109375 -4.328125 C 25.828125 -2.773438 24.238281 -1.585938 22.34375 -0.765625 C 20.457031 0.046875 18.351562 0.453125 16.03125 0.453125 Z M 16.03125 0.453125 "/></g></g></g><g fill="#fcc509" fill-opacity="1"><g transform="translate(198.617838, 248.530368)"><g><path d="M 15.296875 -20.9375 C 17.859375 -20.9375 19.921875 -20.164062 21.484375 -18.625 C 23.054688 -17.09375 23.84375 -14.820312 23.84375 -11.8125 L 23.84375 0 L 17.875 0 L 17.875 -10.890625 C 17.875 -12.523438 17.515625 -13.742188 16.796875 -14.546875 C 16.078125 -15.359375 15.039062 -15.765625 13.6875 -15.765625 C 12.175781 -15.765625 10.972656 -15.296875 10.078125 -14.359375 C 9.191406 -13.421875 8.75 -12.035156 8.75 -10.203125 L 8.75 0 L 2.765625 0 L 2.765625 -28.453125 L 8.75 -28.453125 L 8.75 -18.484375 C 9.539062 -19.273438 10.5 -19.878906 11.625 -20.296875 C 12.75 -20.722656 13.972656 -20.9375 15.296875 -20.9375 Z M 15.296875 -20.9375 "/></g></g></g><g fill="#fcc509" fill-opacity="1"><g transform="translate(222.620469, 248.530368)"><g><path d="M 12.578125 0.3125 C 10.398438 0.3125 8.445312 -0.140625 6.71875 -1.046875 C 5 -1.960938 3.65625 -3.222656 2.6875 -4.828125 C 1.71875 -6.441406 1.234375 -8.269531 1.234375 -10.3125 C 1.234375 -12.351562 1.71875 -14.179688 2.6875 -15.796875 C 3.65625 -17.410156 5 -18.671875 6.71875 -19.578125 C 8.445312 -20.484375 10.398438 -20.9375 12.578125 -20.9375 C 14.742188 -20.9375 16.679688 -20.484375 18.390625 -19.578125 C 20.109375 -18.671875 21.453125 -17.410156 22.421875 -15.796875 C 23.398438 -14.179688 23.890625 -12.351562 23.890625 -10.3125 C 23.890625 -8.269531 23.398438 -6.441406 22.421875 -4.828125 C 21.453125 -3.222656 20.109375 -1.960938 18.390625 -1.046875 C 16.679688 -0.140625 14.742188 0.3125 12.578125 0.3125 Z M 12.578125 -4.59375 C 14.109375 -4.59375 15.363281 -5.109375 16.34375 -6.140625 C 17.332031 -7.179688 17.828125 -8.570312 17.828125 -10.3125 C 17.828125 -12.050781 17.332031 -13.4375 16.34375 -14.46875 C 15.363281 -15.507812 14.109375 -16.03125 12.578125 -16.03125 C 11.046875 -16.03125 9.78125 -15.507812 8.78125 -14.46875 C 7.78125 -13.4375 7.28125 -12.050781 7.28125 -10.3125 C 7.28125 -8.570312 7.78125 -7.179688 8.78125 -6.140625 C 9.78125 -5.109375 11.046875 -4.59375 12.578125 -4.59375 Z M 12.578125 -4.59375 "/></g></g></g><g fill="#fcc509" fill-opacity="1"><g transform="translate(245.242713, 248.530368)"><g><path d="M 12.578125 0.3125 C 10.398438 0.3125 8.445312 -0.140625 6.71875 -1.046875 C 5 -1.960938 3.65625 -3.222656 2.6875 -4.828125 C 1.71875 -6.441406 1.234375 -8.269531 1.234375 -10.3125 C 1.234375 -12.351562 1.71875 -14.179688 2.6875 -15.796875 C 3.65625 -17.410156 5 -18.671875 6.71875 -19.578125 C 8.445312 -20.484375 10.398438 -20.9375 12.578125 -20.9375 C 14.742188 -20.9375 16.679688 -20.484375 18.390625 -19.578125 C 20.109375 -18.671875 21.453125 -17.410156 22.421875 -15.796875 C 23.398438 -14.179688 23.890625 -12.351562 23.890625 -10.3125 C 23.890625 -8.269531 23.398438 -6.441406 22.421875 -4.828125 C 21.453125 -3.222656 20.109375 -1.960938 18.390625 -1.046875 C 16.679688 -0.140625 14.742188 0.3125 12.578125 0.3125 Z M 12.578125 -4.59375 C 14.109375 -4.59375 15.363281 -5.109375 16.34375 -6.140625 C 17.332031 -7.179688 17.828125 -8.570312 17.828125 -10.3125 C 17.828125 -12.050781 17.332031 -13.4375 16.34375 -14.46875 C 15.363281 -15.507812 14.109375 -16.03125 12.578125 -16.03125 C 11.046875 -16.03125 9.78125 -15.507812 8.78125 -14.46875 C 7.78125 -13.4375 7.28125 -12.050781 7.28125 -10.3125 C 7.28125 -8.570312 7.78125 -7.179688 8.78125 -6.140625 C 9.78125 -5.109375 11.046875 -4.59375 12.578125 -4.59375 Z M 12.578125 -4.59375 "/></g></g></g><g fill="#fcc509" fill-opacity="1"><g transform="translate(267.864957, 248.530368)"><g><path d="M 9.703125 0.3125 C 7.984375 0.3125 6.304688 0.101562 4.671875 -0.3125 C 3.035156 -0.738281 1.734375 -1.273438 0.765625 -1.921875 L 2.765625 -6.21875 C 3.679688 -5.625 4.789062 -5.140625 6.09375 -4.765625 C 7.394531 -4.398438 8.675781 -4.21875 9.9375 -4.21875 C 12.46875 -4.21875 13.734375 -4.84375 13.734375 -6.09375 C 13.734375 -6.6875 13.382812 -7.109375 12.6875 -7.359375 C 12 -7.617188 10.941406 -7.835938 9.515625 -8.015625 C 7.828125 -8.265625 6.429688 -8.554688 5.328125 -8.890625 C 4.234375 -9.222656 3.28125 -9.8125 2.46875 -10.65625 C 1.664062 -11.5 1.265625 -12.703125 1.265625 -14.265625 C 1.265625 -15.566406 1.640625 -16.722656 2.390625 -17.734375 C 3.148438 -18.742188 4.25 -19.53125 5.6875 -20.09375 C 7.132812 -20.65625 8.84375 -20.9375 10.8125 -20.9375 C 12.269531 -20.9375 13.71875 -20.773438 15.15625 -20.453125 C 16.601562 -20.140625 17.800781 -19.703125 18.75 -19.140625 L 16.75 -14.875 C 14.9375 -15.894531 12.957031 -16.40625 10.8125 -16.40625 C 9.53125 -16.40625 8.570312 -16.226562 7.9375 -15.875 C 7.300781 -15.519531 6.984375 -15.0625 6.984375 -14.5 C 6.984375 -13.851562 7.328125 -13.398438 8.015625 -13.140625 C 8.703125 -12.890625 9.800781 -12.648438 11.3125 -12.421875 C 13 -12.140625 14.378906 -11.835938 15.453125 -11.515625 C 16.523438 -11.203125 17.457031 -10.625 18.25 -9.78125 C 19.039062 -8.9375 19.4375 -7.757812 19.4375 -6.25 C 19.4375 -4.96875 19.050781 -3.828125 18.28125 -2.828125 C 17.519531 -1.835938 16.40625 -1.066406 14.9375 -0.515625 C 13.46875 0.0351562 11.722656 0.3125 9.703125 0.3125 Z M 9.703125 0.3125 "/></g></g></g><g fill="#fcc509" fill-opacity="1"><g transform="translate(285.73257, 248.530368)"><g><path d="M 22.96875 -10.234375 C 22.96875 -10.160156 22.929688 -9.625 22.859375 -8.625 L 7.25 -8.625 C 7.53125 -7.34375 8.191406 -6.332031 9.234375 -5.59375 C 10.285156 -4.851562 11.59375 -4.484375 13.15625 -4.484375 C 14.226562 -4.484375 15.175781 -4.640625 16 -4.953125 C 16.832031 -5.273438 17.609375 -5.785156 18.328125 -6.484375 L 21.515625 -3.03125 C 19.566406 -0.800781 16.726562 0.3125 13 0.3125 C 10.675781 0.3125 8.617188 -0.140625 6.828125 -1.046875 C 5.035156 -1.960938 3.65625 -3.222656 2.6875 -4.828125 C 1.71875 -6.441406 1.234375 -8.269531 1.234375 -10.3125 C 1.234375 -12.332031 1.710938 -14.15625 2.671875 -15.78125 C 3.628906 -17.40625 4.941406 -18.671875 6.609375 -19.578125 C 8.285156 -20.484375 10.160156 -20.9375 12.234375 -20.9375 C 14.253906 -20.9375 16.082031 -20.5 17.71875 -19.625 C 19.351562 -18.757812 20.632812 -17.515625 21.5625 -15.890625 C 22.5 -14.265625 22.96875 -12.378906 22.96875 -10.234375 Z M 12.265625 -16.40625 C 10.910156 -16.40625 9.773438 -16.019531 8.859375 -15.25 C 7.941406 -14.488281 7.378906 -13.441406 7.171875 -12.109375 L 17.328125 -12.109375 C 17.128906 -13.421875 16.566406 -14.460938 15.640625 -15.234375 C 14.722656 -16.015625 13.597656 -16.40625 12.265625 -16.40625 Z M 12.265625 -16.40625 "/></g></g></g><g fill="#ffffff" fill-opacity="1"><g transform="translate(135.732602, 260.691973)"><g><path d="M 4.046875 0 L 3 -1.5 C 2.957031 -1.5 2.890625 -1.5 2.796875 -1.5 L 1.640625 -1.5 L 1.640625 0 L 0.6875 0 L 0.6875 -5.125 L 2.796875 -5.125 C 3.242188 -5.125 3.628906 -5.050781 3.953125 -4.90625 C 4.285156 -4.757812 4.539062 -4.550781 4.71875 -4.28125 C 4.894531 -4.007812 4.984375 -3.6875 4.984375 -3.3125 C 4.984375 -2.914062 4.890625 -2.578125 4.703125 -2.296875 C 4.515625 -2.023438 4.242188 -1.820312 3.890625 -1.6875 L 5.078125 0 Z M 4.015625 -3.3125 C 4.015625 -3.632812 3.90625 -3.882812 3.6875 -4.0625 C 3.476562 -4.238281 3.164062 -4.328125 2.75 -4.328125 L 1.640625 -4.328125 L 1.640625 -2.28125 L 2.75 -2.28125 C 3.164062 -2.28125 3.476562 -2.367188 3.6875 -2.546875 C 3.90625 -2.722656 4.015625 -2.976562 4.015625 -3.3125 Z M 4.015625 -3.3125 "/></g></g></g><g fill="#ffffff" fill-opacity="1"><g transform="translate(146.261078, 260.691973)"><g><path d="M 4.53125 -0.796875 L 4.53125 0 L 0.6875 0 L 0.6875 -5.125 L 4.4375 -5.125 L 4.4375 -4.328125 L 1.640625 -4.328125 L 1.640625 -3 L 4.125 -3 L 4.125 -2.21875 L 1.640625 -2.21875 L 1.640625 -0.796875 Z M 4.53125 -0.796875 "/></g></g></g><g fill="#ffffff" fill-opacity="1"><g transform="translate(156.34309, 260.691973)"><g><path d="M 3.0625 0.078125 C 2.539062 0.078125 2.070312 -0.0351562 1.65625 -0.265625 C 1.238281 -0.492188 0.910156 -0.804688 0.671875 -1.203125 C 0.441406 -1.609375 0.328125 -2.0625 0.328125 -2.5625 C 0.328125 -3.0625 0.445312 -3.507812 0.6875 -3.90625 C 0.925781 -4.3125 1.253906 -4.628906 1.671875 -4.859375 C 2.085938 -5.085938 2.554688 -5.203125 3.078125 -5.203125 C 3.492188 -5.203125 3.875 -5.128906 4.21875 -4.984375 C 4.5625 -4.835938 4.851562 -4.625 5.09375 -4.34375 L 4.484375 -3.765625 C 4.109375 -4.171875 3.648438 -4.375 3.109375 -4.375 C 2.765625 -4.375 2.453125 -4.296875 2.171875 -4.140625 C 1.890625 -3.984375 1.671875 -3.765625 1.515625 -3.484375 C 1.359375 -3.210938 1.28125 -2.90625 1.28125 -2.5625 C 1.28125 -2.21875 1.359375 -1.90625 1.515625 -1.625 C 1.671875 -1.351562 1.890625 -1.140625 2.171875 -0.984375 C 2.453125 -0.835938 2.765625 -0.765625 3.109375 -0.765625 C 3.648438 -0.765625 4.109375 -0.96875 4.484375 -1.375 L 5.09375 -0.78125 C 4.851562 -0.5 4.554688 -0.285156 4.203125 -0.140625 C 3.859375 0.00390625 3.476562 0.078125 3.0625 0.078125 Z M 3.0625 0.078125 "/></g></g></g><g fill="#ffffff" fill-opacity="1"><g transform="translate(166.84229, 260.691973)"><g><path d="M 3.078125 0.078125 C 2.554688 0.078125 2.085938 -0.0351562 1.671875 -0.265625 C 1.253906 -0.492188 0.925781 -0.804688 0.6875 -1.203125 C 0.445312 -1.609375 0.328125 -2.0625 0.328125 -2.5625 C 0.328125 -3.0625 0.445312 -3.507812 0.6875 -3.90625 C 0.925781 -4.3125 1.253906 -4.628906 1.671875 -4.859375 C 2.085938 -5.085938 2.554688 -5.203125 3.078125 -5.203125 C 3.609375 -5.203125 4.082031 -5.085938 4.5 -4.859375 C 4.914062 -4.628906 5.242188 -4.3125 5.484375 -3.90625 C 5.722656 -3.507812 5.84375 -3.0625 5.84375 -2.5625 C 5.84375 -2.0625 5.722656 -1.609375 5.484375 -1.203125 C 5.242188 -0.804688 4.914062 -0.492188 4.5 -0.265625 C 4.082031 -0.0351562 3.609375 0.078125 3.078125 0.078125 Z M 3.078125 -0.765625 C 3.421875 -0.765625 3.726562 -0.835938 4 -0.984375 C 4.28125 -1.140625 4.5 -1.351562 4.65625 -1.625 C 4.8125 -1.90625 4.890625 -2.21875 4.890625 -2.5625 C 4.890625 -2.90625 4.8125 -3.210938 4.65625 -3.484375 C 4.5 -3.765625 4.28125 -3.984375 4 -4.140625 C 3.726562 -4.296875 3.421875 -4.375 3.078125 -4.375 C 2.742188 -4.375 2.4375 -4.296875 2.15625 -4.140625 C 1.882812 -3.984375 1.671875 -3.765625 1.515625 -3.484375 C 1.359375 -3.210938 1.28125 -2.90625 1.28125 -2.5625 C 1.28125 -2.21875 1.359375 -1.90625 1.515625 -1.625 C 1.671875 -1.351562 1.882812 -1.140625 2.15625 -0.984375 C 2.4375 -0.835938 2.742188 -0.765625 3.078125 -0.765625 Z M 3.078125 -0.765625 "/></g></g></g><g fill="#ffffff" fill-opacity="1"><g transform="translate(178.183173, 260.691973)"><g><path d="M 5.40625 0 L 5.390625 -3.40625 L 3.703125 -0.59375 L 3.28125 -0.59375 L 1.59375 -3.359375 L 1.59375 0 L 0.6875 0 L 0.6875 -5.125 L 1.46875 -5.125 L 3.515625 -1.734375 L 5.515625 -5.125 L 6.296875 -5.125 L 6.296875 0 Z M 5.40625 0 "/></g></g></g><g fill="#ffffff" fill-opacity="1"><g transform="translate(190.351103, 260.691973)"><g><path d="M 5.40625 0 L 5.390625 -3.40625 L 3.703125 -0.59375 L 3.28125 -0.59375 L 1.59375 -3.359375 L 1.59375 0 L 0.6875 0 L 0.6875 -5.125 L 1.46875 -5.125 L 3.515625 -1.734375 L 5.515625 -5.125 L 6.296875 -5.125 L 6.296875 0 Z M 5.40625 0 "/></g></g></g><g fill="#ffffff" fill-opacity="1"><g transform="translate(202.519032, 260.691973)"><g><path d="M 4.53125 -0.796875 L 4.53125 0 L 0.6875 0 L 0.6875 -5.125 L 4.4375 -5.125 L 4.4375 -4.328125 L 1.640625 -4.328125 L 1.640625 -3 L 4.125 -3 L 4.125 -2.21875 L 1.640625 -2.21875 L 1.640625 -0.796875 Z M 4.53125 -0.796875 "/></g></g></g><g fill="#ffffff" fill-opacity="1"><g transform="translate(212.60104, 260.691973)"><g><path d="M 0.6875 -5.125 L 2.9375 -5.125 C 3.476562 -5.125 3.960938 -5.015625 4.390625 -4.796875 C 4.816406 -4.585938 5.144531 -4.289062 5.375 -3.90625 C 5.613281 -3.519531 5.734375 -3.070312 5.734375 -2.5625 C 5.734375 -2.050781 5.613281 -1.601562 5.375 -1.21875 C 5.144531 -0.832031 4.816406 -0.53125 4.390625 -0.3125 C 3.960938 -0.101562 3.476562 0 2.9375 0 L 0.6875 0 Z M 2.890625 -0.8125 C 3.265625 -0.8125 3.59375 -0.878906 3.875 -1.015625 C 4.164062 -1.160156 4.382812 -1.363281 4.53125 -1.625 C 4.6875 -1.894531 4.765625 -2.207031 4.765625 -2.5625 C 4.765625 -2.914062 4.6875 -3.222656 4.53125 -3.484375 C 4.382812 -3.753906 4.164062 -3.960938 3.875 -4.109375 C 3.59375 -4.253906 3.265625 -4.328125 2.890625 -4.328125 L 1.640625 -4.328125 L 1.640625 -0.8125 Z M 2.890625 -0.8125 "/></g></g></g><g fill="#ffffff" fill-opacity="1"><g transform="translate(223.824825, 260.691973)"><g><path d="M 4.53125 -0.796875 L 4.53125 0 L 0.6875 0 L 0.6875 -5.125 L 4.4375 -5.125 L 4.4375 -4.328125 L 1.640625 -4.328125 L 1.640625 -3 L 4.125 -3 L 4.125 -2.21875 L 1.640625 -2.21875 L 1.640625 -0.796875 Z M 4.53125 -0.796875 "/></g></g></g><g fill="#ffffff" fill-opacity="1"><g transform="translate(233.906833, 260.691973)"><g><path d="M 4.046875 0 L 3 -1.5 C 2.957031 -1.5 2.890625 -1.5 2.796875 -1.5 L 1.640625 -1.5 L 1.640625 0 L 0.6875 0 L 0.6875 -5.125 L 2.796875 -5.125 C 3.242188 -5.125 3.628906 -5.050781 3.953125 -4.90625 C 4.285156 -4.757812 4.539062 -4.550781 4.71875 -4.28125 C 4.894531 -4.007812 4.984375 -3.6875 4.984375 -3.3125 C 4.984375 -2.914062 4.890625 -2.578125 4.703125 -2.296875 C 4.515625 -2.023438 4.242188 -1.820312 3.890625 -1.6875 L 5.078125 0 Z M 4.015625 -3.3125 C 4.015625 -3.632812 3.90625 -3.882812 3.6875 -4.0625 C 3.476562 -4.238281 3.164062 -4.328125 2.75 -4.328125 L 1.640625 -4.328125 L 1.640625 -2.28125 L 2.75 -2.28125 C 3.164062 -2.28125 3.476562 -2.367188 3.6875 -2.546875 C 3.90625 -2.722656 4.015625 -2.976562 4.015625 -3.3125 Z M 4.015625 -3.3125 "/></g></g></g></svg>