<svg xmlns="http://www.w3.org/2000/svg" xmlns:xlink="http://www.w3.org/1999/xlink" zoomAndPan="magnify" preserveAspectRatio="xMidYMid meet" version="1.0" viewBox="11.07 162.5 361.21 46.83"><defs><g/></defs><g fill="#fcc509" fill-opacity="1"><g transform="translate(10.756427, 207.374986)"><g><path d="M 2.84375 -30.703125 L 0.3125 -30.703125 L 2.84375 -42.046875 L 14.1875 -42.046875 L 20.171875 -32.265625 L 26.15625 -42.046875 L 37.5 -42.046875 L 37.5 0 L 26.15625 0 L 26.15625 -23.578125 L 20.171875 -13.9375 L 14.1875 -23.578125 L 14.1875 0 L 2.84375 0 Z M 2.84375 -30.703125 "/></g></g></g><g fill="#fcc509" fill-opacity="1"><g transform="translate(51.091469, 207.374986)"><g><path d="M 14.375 -31.328125 C 16.300781 -31.328125 18.070312 -30.9375 19.6875 -30.15625 C 21.3125 -29.382812 22.710938 -28.28125 23.890625 -26.84375 C 25.066406 -25.414062 25.976562 -23.722656 26.625 -21.765625 C 27.28125 -19.816406 27.609375 -17.6875 27.609375 -15.375 C 27.609375 -13.019531 27.28125 -10.851562 26.625 -8.875 C 25.976562 -6.90625 25.066406 -5.21875 23.890625 -3.8125 C 22.710938 -2.40625 21.289062 -1.3125 19.625 -0.53125 C 17.96875 0.238281 16.15625 0.625 14.1875 0.625 C 12.289062 0.625 10.554688 0.226562 8.984375 -0.5625 C 7.410156 -1.363281 6.035156 -2.476562 4.859375 -3.90625 C 3.679688 -5.332031 2.765625 -7.019531 2.109375 -8.96875 C 1.460938 -10.925781 1.140625 -13.0625 1.140625 -15.375 C 1.140625 -17.6875 1.460938 -19.816406 2.109375 -21.765625 C 2.765625 -23.722656 3.679688 -25.40625 4.859375 -26.8125 C 6.035156 -28.226562 7.429688 -29.332031 9.046875 -30.125 C 10.660156 -30.925781 12.4375 -31.328125 14.375 -31.328125 Z M 14.375 -20.796875 C 13.40625 -20.796875 12.664062 -20.300781 12.15625 -19.3125 C 11.65625 -18.332031 11.40625 -16.914062 11.40625 -15.0625 C 11.40625 -13.175781 11.65625 -11.738281 12.15625 -10.75 C 12.664062 -9.757812 13.40625 -9.265625 14.375 -9.265625 C 15.34375 -9.265625 16.078125 -9.757812 16.578125 -10.75 C 17.078125 -11.738281 17.328125 -13.132812 17.328125 -14.9375 C 17.328125 -18.84375 16.34375 -20.796875 14.375 -20.796875 Z M 14.375 -20.796875 "/></g></g></g><g fill="#fcc509" fill-opacity="1"><g transform="translate(79.830191, 207.374986)"><g><path d="M -0.5625 -30.703125 L 10.65625 -30.703125 L 13.484375 -14.0625 L 16.265625 -30.703125 L 27.484375 -30.703125 L 19.734375 0 L 7.125 0 Z M -0.5625 -30.703125 "/></g></g></g><g fill="#fcc509" fill-opacity="1"><g transform="translate(106.741223, 207.374986)"><g><path d="M 2.640625 -20.359375 L 0.3125 -20.359375 L 2.640625 -30.703125 L 12.984375 -30.703125 L 12.984375 -10.078125 L 15.1875 -10.078125 L 12.984375 0 L 2.640625 0 Z M 4.40625 -43.296875 L 14.6875 -43.296875 L 12.484375 -33.03125 L 2.140625 -33.03125 Z M 4.40625 -43.296875 "/></g></g></g><g fill="#fcc509" fill-opacity="1"><g transform="translate(122.245002, 207.374986)"><g><path d="M 23.703125 -0.3125 C 22.398438 0.0195312 21.203125 0.257812 20.109375 0.40625 C 19.015625 0.550781 17.878906 0.625 16.703125 0.625 C 13.804688 0.625 11.359375 0.132812 9.359375 -0.84375 C 7.359375 -1.832031 5.644531 -3.398438 4.21875 -5.546875 C 2.164062 -8.609375 1.140625 -12.035156 1.140625 -15.828125 C 1.140625 -18.003906 1.472656 -20.035156 2.140625 -21.921875 C 2.816406 -23.816406 3.753906 -25.457031 4.953125 -26.84375 C 6.148438 -28.238281 7.546875 -29.332031 9.140625 -30.125 C 10.734375 -30.925781 12.476562 -31.328125 14.375 -31.328125 C 18.65625 -31.328125 21.910156 -29.394531 24.140625 -25.53125 C 25.941406 -22.289062 26.84375 -18.59375 26.84375 -14.4375 C 26.84375 -14.351562 26.84375 -14.148438 26.84375 -13.828125 C 26.84375 -13.515625 26.820312 -13.191406 26.78125 -12.859375 L 11.71875 -12.859375 C 12.3125 -11.265625 13.109375 -10.128906 14.109375 -9.453125 C 15.117188 -8.785156 16.570312 -8.453125 18.46875 -8.453125 C 19.5625 -8.453125 20.78125 -8.566406 22.125 -8.796875 C 23.46875 -9.023438 24.6875 -9.347656 25.78125 -9.765625 Z M 17.015625 -18.96875 C 16.804688 -20.4375 16.476562 -21.492188 16.03125 -22.140625 C 15.59375 -22.796875 14.976562 -23.125 14.1875 -23.125 C 13.425781 -23.125 12.78125 -22.742188 12.25 -21.984375 C 11.726562 -21.234375 11.425781 -20.226562 11.34375 -18.96875 Z M 17.015625 -18.96875 "/></g></g></g><path stroke-linecap="butt" transform="matrix(0.75, 0, 0, 0.75, 155.924541, 143.624991)" fill="none" stroke-linejoin="miter" d="M 40.767282 79.031268 C 35.611031 83.572935 30.199573 85.843768 24.538114 85.843768 C 21.173531 85.843768 17.95478 85.015643 14.876655 83.359393 C 11.79853 81.703143 9.194363 79.390643 7.058946 76.421893 C 3.475613 71.442726 1.683946 65.229184 1.683946 57.77085 C 1.683946 52.276058 2.564154 47.359391 4.329779 43.020849 C 6.095405 38.687515 8.569363 35.223973 11.756863 32.64064 C 13.564155 31.187515 15.522488 30.072931 17.647489 29.296889 C 19.777697 28.500014 21.907906 28.104181 24.027697 28.104181 C 24.819364 28.104181 25.579781 28.161473 26.303739 28.270848 C 27.027698 28.380223 27.980823 28.578139 29.157906 28.864598 L 29.996448 27.098973 L 41.262073 32.312515 L 34.95999 49.031266 C 33.496448 47.078141 32.08499 45.666682 30.715198 44.807307 C 29.345406 43.932307 27.767281 43.494807 25.975614 43.494807 C 20.42353 43.494807 17.647489 48.052099 17.647489 57.1771 C 17.647489 61.557308 18.314155 64.947934 19.657905 67.354184 C 21.012072 69.760434 22.892281 70.963559 25.298531 70.963559 C 28.772489 70.963559 31.99124 68.505225 34.95999 63.578142 Z M 45.538115 44.067724 L 42.173532 44.067724 L 45.538115 28.947931 L 60.678741 28.947931 L 60.678741 49.114599 L 69.99645 49.114599 L 69.99645 28.947931 L 85.137076 28.947931 L 85.137076 85.000018 L 69.99645 85.000018 L 69.99645 63.9896 L 60.678741 63.9896 L 60.678741 85.000018 L 45.538115 85.000018 Z M 114.126662 28.104181 C 118.157912 28.104181 121.907912 29.187514 125.366246 31.348973 C 128.845413 33.494806 131.647496 36.505223 133.782913 40.375015 C 135.01208 42.510432 135.94958 45.005224 136.590205 47.864599 C 137.236038 50.708349 137.553746 53.729183 137.553746 56.932308 C 137.553746 61.130225 137.022496 64.953142 135.954788 68.401059 C 134.902705 71.848976 133.334996 74.828142 131.256871 77.348976 C 129.012079 80.093768 126.407912 82.203143 123.439162 83.666685 C 120.470412 85.114601 117.340203 85.843768 114.043328 85.843768 C 108.887078 85.843768 104.319369 84.104185 100.334994 80.630226 C 93.949577 75.255226 90.756868 67.213559 90.756868 56.500016 C 90.756868 48.390641 92.855827 41.755224 97.053744 36.598973 C 99.298536 33.906265 101.902702 31.817723 104.871453 30.343765 C 107.840203 28.848973 110.923536 28.104181 114.126662 28.104181 Z M 114.126662 43.494807 C 111.829786 43.494807 110.017286 44.697932 108.689161 47.104182 C 107.376661 49.510432 106.720411 52.812516 106.720411 57.015641 C 106.720411 61.447933 107.376661 64.880225 108.689161 67.312517 C 110.017286 69.750017 111.855828 70.963559 114.204787 70.963559 C 116.558953 70.963559 118.376662 69.750017 119.66312 67.312517 C 120.949579 64.880225 121.595412 61.526058 121.595412 57.260433 C 121.595412 52.895849 120.939162 49.510432 119.621454 47.104182 C 118.308954 44.697932 116.47562 43.494807 114.126662 43.494807 Z M 164.293332 28.104181 C 168.324582 28.104181 172.074582 29.187514 175.538124 31.348973 C 179.012083 33.494806 181.814166 36.505223 183.949583 40.375015 C 185.17875 42.510432 186.11625 45.005224 186.756875 47.864599 C 187.402708 50.708349 187.720416 53.729183 187.720416 56.932308 C 187.720416 61.130225 187.189166 64.953142 186.121458 68.401059 C 185.069375 71.848976 183.501666 74.828142 181.423541 77.348976 C 179.178749 80.093768 176.574582 82.203143 173.605832 83.666685 C 170.637082 85.114601 167.506873 85.843768 164.209998 85.843768 C 159.053748 85.843768 154.486039 84.104185 150.501664 80.630226 C 144.116247 75.255226 140.923538 67.213559 140.923538 56.500016 C 140.923538 48.390641 143.022497 41.755224 147.220414 36.598973 C 149.465206 33.906265 152.069372 31.817723 155.038123 30.343765 C 158.006873 28.848973 161.090206 28.104181 164.293332 28.104181 Z M 164.293332 43.494807 C 161.996456 43.494807 160.183956 44.697932 158.855831 47.104182 C 157.543331 49.510432 156.887081 52.812516 156.887081 57.015641 C 156.887081 61.447933 157.543331 64.880225 158.855831 67.312517 C 160.183956 69.750017 162.022498 70.963559 164.371457 70.963559 C 166.725623 70.963559 168.543332 69.750017 169.82979 67.312517 C 171.116249 64.880225 171.762082 61.526058 171.762082 57.260433 C 171.762082 52.895849 171.105832 49.510432 169.788124 47.104182 C 168.475624 44.697932 166.64229 43.494807 164.293332 43.494807 Z M 195.293334 66.348975 C 197.361042 67.796892 199.543334 68.932309 201.840209 69.755225 C 204.137084 70.562517 206.272501 70.963559 208.241251 70.963559 C 209.350626 70.963559 210.267293 70.687517 210.991251 70.125017 C 211.730835 69.562517 212.100626 68.807309 212.100626 67.848975 C 212.100626 67.354184 212.012085 66.89585 211.829793 66.473975 C 211.668335 66.046892 211.335001 65.619809 210.824585 65.182309 C 210.335001 64.729183 209.65271 64.250017 208.777709 63.744808 C 207.913126 63.2396 206.777709 62.651058 205.371459 61.979183 C 202.741251 60.750017 200.710001 59.687516 199.277709 58.796891 C 197.850625 57.89585 196.605834 56.937516 195.543334 55.9271 C 194.090209 54.640641 192.986042 53.020849 192.215208 51.062516 C 191.465208 49.093766 191.090208 46.989599 191.090208 44.744807 C 191.090208 42.338557 191.480833 40.130224 192.256875 38.119807 C 193.05375 36.093765 194.157917 34.343765 195.585 32.864598 C 197.017292 31.375015 198.689167 30.213556 200.590209 29.375015 C 202.491251 28.531264 204.590209 28.104181 206.887084 28.104181 C 208.064168 28.104181 209.173543 28.171889 210.210001 28.312514 C 211.251668 28.447931 212.605835 28.713556 214.272502 29.109389 L 214.87146 26.666681 L 226.975627 29.625015 L 223.199585 44.989599 C 221.626669 43.70314 219.881877 42.713557 217.96521 42.01564 C 216.064168 41.317724 214.220418 40.968765 212.428751 40.968765 C 211.032918 40.968765 209.897501 41.23439 209.022501 41.770849 C 208.157918 42.302099 207.730834 43.01564 207.730834 43.901057 C 207.730834 44.354182 207.824584 44.781266 208.017293 45.177099 C 208.220418 45.557307 208.605834 45.973974 209.163126 46.427099 C 209.725626 46.880224 210.475626 47.385432 211.423543 47.942724 C 212.381876 48.505224 213.585001 49.151057 215.032918 49.875016 C 216.444377 50.598974 217.631877 51.229183 218.600627 51.760433 C 219.59021 52.296891 220.428752 52.802099 221.126669 53.281266 C 221.824585 53.760433 222.428752 54.223974 222.93396 54.677099 C 223.439169 55.1146 223.918335 55.609391 224.366252 56.171891 C 226.829794 59.140641 228.064169 62.812517 228.064169 67.192725 C 228.064169 69.927101 227.595419 72.442726 226.668336 74.739601 C 225.751669 77.041684 224.475627 79.000018 222.850627 80.630226 C 221.220419 82.255226 219.272502 83.536476 217.001668 84.468768 C 214.74646 85.385435 212.241251 85.843768 209.491251 85.843768 C 206.470418 85.843768 203.527709 85.421893 200.668334 84.58856 C 197.814167 83.739601 194.845417 82.421893 191.767292 80.630226 Z M 233.267294 44.067724 L 229.897503 44.067724 L 233.267294 28.947931 L 252.428754 28.947931 L 252.428754 27.015639 L 265.782922 27.015639 L 262.012088 44.067724 L 248.40792 44.067724 L 248.40792 50.796891 L 264.616255 50.796891 L 262.012088 63.151058 L 248.40792 63.151058 L 248.40792 69.880225 L 264.616255 69.880225 L 261.251671 85.000018 L 233.267294 85.000018 Z M 279.397506 68.604184 C 281.751673 68.604184 283.595423 69.390642 284.933964 70.963559 C 286.288131 72.536476 286.965215 74.666684 286.965215 77.348976 C 286.965215 80.041684 286.251673 82.177101 284.814173 83.750018 C 283.392298 85.30731 281.501673 86.08856 279.152714 86.08856 C 276.798547 86.08856 274.918339 85.30731 273.50688 83.750018 C 272.111047 82.177101 271.41313 80.093768 271.41313 77.510434 C 271.41313 74.828142 272.142297 72.677101 273.590214 71.046892 C 275.053756 69.421892 276.991256 68.604184 279.397506 68.604184 Z M 279.397506 68.604184 " stroke="#fcc509" stroke-width="2.258645" stroke-opacity="1" stroke-miterlimit="4"/></svg>